<!-- public/favicon.svg -->
<svg xmlns="http://www.w3.org/2000/svg" width="512" height="512" viewBox="0 0 512 512">
  <defs>
    <radialGradient id="glow" cx="50%" cy="40%" r="60%">
      <stop offset="0%" stop-color="#ff4040" stop-opacity="1"/>
      <stop offset="60%" stop-color="#b30000" stop-opacity="1"/>
      <stop offset="100%" stop-color="#000000" stop-opacity="1"/>
    </radialGradient>
    <filter id="softGlow">
      <feGaussianBlur stdDeviation="6" result="blur"/>
      <feMerge>
        <feMergeNode in="blur"/>
        <feMergeNode in="SourceGraphic"/>
      </feMerge>
    </filter>
  </defs>

  <!-- background -->
  <rect width="512" height="512" fill="#0f0f10"/>

  <!-- subtle ring -->
  <circle cx="256" cy="256" r="200" fill="none" stroke="#1f1f22" stroke-width="14"/>

  <!-- glowing core -->
  <circle cx="256" cy="230" r="160" fill="url(#glow)" opacity="0.7" filter="url(#softGlow)"/>

  <!-- the G -->
  <path d="M256 120c-84 0-152 68-152 152s68 152 152 152c66 0 119-36 141-90l-62-24c-13 33-42 58-79 63-56 8-108-30-116-86-8-56 30-108 86-116 58-8 113 33 121 91h-99v54h164c2-12 3-24 3-36 0-105-85-190-190-190z"
        fill="#ffffff" stroke="#ff2b2b" stroke-width="8" filter="url(#softGlow)"/>

  <!-- bottom accent -->
  <rect x="146" y="396" width="220" height="6" rx="3" fill="#ff2b2b" opacity="0.8"/>
</svg>
